<?xml version="1.0" encoding="UTF-8" standalone="no"?>
<!DOCTYPE svg PUBLIC "-//W3C//DTD SVG 1.1//EN"
 "http://www.w3.org/Graphics/SVG/1.1/DTD/svg11.dtd">
<!-- Generated by graphviz version 3.0.0 (20220226.1711)
 -->
<!-- Title: dependencies Pages: 1 -->
<svg width="284pt" height="174pt"
 viewBox="0.00 0.00 284.00 173.80" xmlns="http://www.w3.org/2000/svg" xmlns:xlink="http://www.w3.org/1999/xlink">
<g id="graph0" class="graph" transform="scale(1 1) rotate(0) translate(4 169.8)">
<title>dependencies</title>
<polygon fill="white" stroke="transparent" points="-4,4 -4,-169.8 280,-169.8 280,4 -4,4"/>
<text text-anchor="middle" x="138" y="-8.2" font-family="sans-serif" font-size="14.00">dependencies</text>
<g id="clust1" class="cluster">
<title>cluster_AppModule</title>
<polygon fill="none" stroke="black" stroke-dasharray="1,5" points="8,-32.8 8,-157.8 268,-157.8 268,-32.8 8,-32.8"/>
</g>
<g id="clust3" class="cluster">
<title>cluster_AppModule_imports</title>
<polygon fill="none" stroke="black" points="154,-40.8 154,-92.8 260,-92.8 260,-40.8 154,-40.8"/>
</g>
<g id="clust6" class="cluster">
<title>cluster_AppModule_providers</title>
<polygon fill="none" stroke="black" points="16,-40.8 16,-92.8 146,-92.8 146,-40.8 16,-40.8"/>
</g>
<!-- DogsModule -->
<g id="node1" class="node">
<title>DogsModule</title>
<polygon fill="#8dd3c7" stroke="black" points="251.61,-84.8 248.61,-88.8 227.61,-88.8 224.61,-84.8 162.39,-84.8 162.39,-48.8 251.61,-48.8 251.61,-84.8"/>
<text text-anchor="middle" x="207" y="-62.6" font-family="Times,serif" font-size="14.00">DogsModule</text>
</g>
<!-- AppModule -->
<g id="node2" class="node">
<title>AppModule</title>
<polygon fill="#8dd3c7" stroke="black" points="185.66,-149.8 182.66,-153.8 161.66,-153.8 158.66,-149.8 102.34,-149.8 102.34,-113.8 185.66,-113.8 185.66,-149.8"/>
<text text-anchor="middle" x="144" y="-127.6" font-family="Times,serif" font-size="14.00">AppModule</text>
</g>
<!-- DogsModule&#45;&gt;AppModule -->
<g id="edge1" class="edge">
<title>DogsModule&#45;&gt;AppModule</title>
<path fill="none" stroke="black" d="M174.14,-84.91C174.14,-84.91 174.14,-103.79 174.14,-103.79"/>
<polygon fill="black" stroke="black" points="170.64,-103.79 174.14,-113.79 177.64,-103.79 170.64,-103.79"/>
</g>
<!-- AppService -->
<g id="node3" class="node">
<title>AppService</title>
<ellipse fill="#fdb462" stroke="black" cx="81" cy="-66.8" rx="56.75" ry="18"/>
<text text-anchor="middle" x="81" y="-62.6" font-family="Times,serif" font-size="14.00">AppService</text>
</g>
<!-- AppService&#45;&gt;AppModule -->
<g id="edge2" class="edge">
<title>AppService&#45;&gt;AppModule</title>
<path fill="none" stroke="black" d="M119.9,-79.95C119.9,-79.95 119.9,-103.49 119.9,-103.49"/>
<polygon fill="black" stroke="black" points="116.4,-103.49 119.9,-113.49 123.4,-103.49 116.4,-103.49"/>
</g>
</g>
</svg>
