<?xml version="1.0" encoding="UTF-8" standalone="no"?>
<!DOCTYPE svg PUBLIC "-//W3C//DTD SVG 1.1//EN"
 "http://www.w3.org/Graphics/SVG/1.1/DTD/svg11.dtd">
<!-- Generated by graphviz version 3.0.0 (20220226.1711)
 -->
<!-- Title: dependencies Pages: 1 -->
<svg width="299pt" height="250pt"
 viewBox="0.00 0.00 299.00 249.80" xmlns="http://www.w3.org/2000/svg" xmlns:xlink="http://www.w3.org/1999/xlink">
<g id="graph0" class="graph" transform="scale(1 1) rotate(0) translate(4 245.8)">
<title>dependencies</title>
<polygon fill="white" stroke="transparent" points="-4,4 -4,-245.8 295,-245.8 295,4 -4,4"/>
<text text-anchor="middle" x="145.5" y="-8.2" font-family="sans-serif" font-size="14.00">dependencies</text>
<g id="clust1" class="cluster">
<title>cluster_AppModule</title>
<polygon fill="none" stroke="black" stroke-dasharray="1,5" points="8,-108.8 8,-233.8 268,-233.8 268,-108.8 8,-108.8"/>
</g>
<g id="clust3" class="cluster">
<title>cluster_AppModule_imports</title>
<polygon fill="none" stroke="black" points="154,-116.8 154,-168.8 260,-168.8 260,-116.8 154,-116.8"/>
</g>
<g id="clust6" class="cluster">
<title>cluster_AppModule_providers</title>
<polygon fill="none" stroke="black" points="16,-116.8 16,-168.8 146,-168.8 146,-116.8 16,-116.8"/>
</g>
<g id="clust7" class="cluster">
<title>cluster_DogsModule</title>
<polygon fill="none" stroke="black" stroke-dasharray="1,5" points="131,-32.8 131,-100.8 283,-100.8 283,-32.8 131,-32.8"/>
</g>
<g id="clust12" class="cluster">
<title>cluster_DogsModule_providers</title>
<polygon fill="none" stroke="black" points="139,-40.8 139,-92.8 275,-92.8 275,-40.8 139,-40.8"/>
</g>
<!-- DogsModule -->
<g id="node1" class="node">
<title>DogsModule</title>
<polygon fill="#8dd3c7" stroke="black" points="251.61,-160.8 248.61,-164.8 227.61,-164.8 224.61,-160.8 162.39,-160.8 162.39,-124.8 251.61,-124.8 251.61,-160.8"/>
<text text-anchor="middle" x="207" y="-138.6" font-family="Times,serif" font-size="14.00">DogsModule</text>
</g>
<!-- AppModule -->
<g id="node2" class="node">
<title>AppModule</title>
<polygon fill="#8dd3c7" stroke="black" points="185.66,-225.8 182.66,-229.8 161.66,-229.8 158.66,-225.8 102.34,-225.8 102.34,-189.8 185.66,-189.8 185.66,-225.8"/>
<text text-anchor="middle" x="144" y="-203.6" font-family="Times,serif" font-size="14.00">AppModule</text>
</g>
<!-- DogsModule&#45;&gt;AppModule -->
<g id="edge1" class="edge">
<title>DogsModule&#45;&gt;AppModule</title>
<path fill="none" stroke="black" d="M174.14,-160.91C174.14,-160.91 174.14,-179.79 174.14,-179.79"/>
<polygon fill="black" stroke="black" points="170.64,-179.79 174.14,-189.79 177.64,-179.79 170.64,-179.79"/>
</g>
<!-- AppService -->
<g id="node3" class="node">
<title>AppService</title>
<ellipse fill="#fdb462" stroke="black" cx="81" cy="-142.8" rx="56.75" ry="18"/>
<text text-anchor="middle" x="81" y="-138.6" font-family="Times,serif" font-size="14.00">AppService</text>
</g>
<!-- AppService&#45;&gt;AppModule -->
<g id="edge2" class="edge">
<title>AppService&#45;&gt;AppModule</title>
<path fill="none" stroke="black" d="M119.9,-155.95C119.9,-155.95 119.9,-179.49 119.9,-179.49"/>
<polygon fill="black" stroke="black" points="116.4,-179.49 119.9,-189.49 123.4,-179.49 116.4,-179.49"/>
</g>
<!-- DogsService -->
<g id="node4" class="node">
<title>DogsService</title>
<ellipse fill="#fdb462" stroke="black" cx="207" cy="-66.8" rx="60.26" ry="18"/>
<text text-anchor="middle" x="207" y="-62.6" font-family="Times,serif" font-size="14.00">DogsService</text>
</g>
<!-- DogsService&#45;&gt;DogsModule -->
<g id="edge3" class="edge">
<title>DogsService&#45;&gt;DogsModule</title>
<path fill="none" stroke="black" d="M207,-84.81C207,-84.81 207,-114.65 207,-114.65"/>
<polygon fill="black" stroke="black" points="203.5,-114.65 207,-124.65 210.5,-114.65 203.5,-114.65"/>
</g>
</g>
</svg>
